<mxfile host="app.diagrams.net" agent="Mozilla/5.0 (Windows NT 10.0; Win64; x64) AppleWebKit/537.36 (KHTML, like Gecko) Chrome/138.0.0.0 Safari/537.36" version="27.1.6">
  <diagram name="P치gina-1" id="cywcWZN6CDEDMyV-TE8t">
    <mxGraphModel grid="1" page="1" gridSize="10" guides="1" tooltips="1" connect="1" arrows="1" fold="1" pageScale="1" pageWidth="827" pageHeight="1169" math="0" shadow="0">
      <root>
        <mxCell id="0" />
        <mxCell id="1" parent="0" />
        <mxCell id="s71qPfRF_DvY5b6jS86k-47" value="Administrador" style="html=1;whiteSpace=wrap;" vertex="1" parent="1">
          <mxGeometry x="60" y="50" width="110" height="50" as="geometry" />
        </mxCell>
        <mxCell id="s71qPfRF_DvY5b6jS86k-48" value="Sistema&lt;span style=&quot;color: rgba(0, 0, 0, 0); font-family: monospace; font-size: 0px; text-align: start; text-wrap-mode: nowrap;&quot;&gt;%3CmxGraphModel%3E%3Croot%3E%3CmxCell%20id%3D%220%22%2F%3E%3CmxCell%20id%3D%221%22%20parent%3D%220%22%2F%3E%3CmxCell%20id%3D%222%22%20value%3D%22Usuario%22%20style%3D%22html%3D1%3BwhiteSpace%3Dwrap%3B%22%20vertex%3D%221%22%20parent%3D%221%22%3E%3CmxGeometry%20x%3D%2270%22%20y%3D%2240%22%20width%3D%22110%22%20height%3D%2250%22%20as%3D%22geometry%22%2F%3E%3C%2FmxCell%3E%3C%2Froot%3E%3C%2FmxGraphModel%3E&lt;/span&gt;" style="html=1;whiteSpace=wrap;" vertex="1" parent="1">
          <mxGeometry x="260" y="50" width="110" height="50" as="geometry" />
        </mxCell>
        <mxCell id="s71qPfRF_DvY5b6jS86k-49" value="Base de datos" style="html=1;whiteSpace=wrap;" vertex="1" parent="1">
          <mxGeometry x="460" y="50" width="110" height="50" as="geometry" />
        </mxCell>
        <mxCell id="s71qPfRF_DvY5b6jS86k-50" value="Administrador" style="html=1;whiteSpace=wrap;" vertex="1" parent="1">
          <mxGeometry x="50" y="900" width="110" height="50" as="geometry" />
        </mxCell>
        <mxCell id="s71qPfRF_DvY5b6jS86k-51" value="Sistema&lt;span style=&quot;color: rgba(0, 0, 0, 0); font-family: monospace; font-size: 0px; text-align: start; text-wrap-mode: nowrap;&quot;&gt;%3CmxGraphModel%3E%3Croot%3E%3CmxCell%20id%3D%220%22%2F%3E%3CmxCell%20id%3D%221%22%20parent%3D%220%22%2F%3E%3CmxCell%20id%3D%222%22%20value%3D%22Usuario%22%20style%3D%22html%3D1%3BwhiteSpace%3Dwrap%3B%22%20vertex%3D%221%22%20parent%3D%221%22%3E%3CmxGeometry%20x%3D%2270%22%20y%3D%2240%22%20width%3D%22110%22%20height%3D%2250%22%20as%3D%22geometry%22%2F%3E%3C%2FmxCell%3E%3C%2Froot%3E%3C%2FmxGraphModel%3E&lt;/span&gt;" style="html=1;whiteSpace=wrap;" vertex="1" parent="1">
          <mxGeometry x="260" y="900" width="110" height="50" as="geometry" />
        </mxCell>
        <mxCell id="s71qPfRF_DvY5b6jS86k-52" value="Base de datos" style="html=1;whiteSpace=wrap;" vertex="1" parent="1">
          <mxGeometry x="457.5" y="900" width="110" height="50" as="geometry" />
        </mxCell>
        <mxCell id="s71qPfRF_DvY5b6jS86k-53" value="" style="endArrow=none;dashed=1;html=1;rounded=0;entryX=0.5;entryY=1;entryDx=0;entryDy=0;exitX=0.5;exitY=0;exitDx=0;exitDy=0;" edge="1" parent="1" source="s71qPfRF_DvY5b6jS86k-55" target="s71qPfRF_DvY5b6jS86k-48">
          <mxGeometry width="50" height="50" relative="1" as="geometry">
            <mxPoint x="290" y="330" as="sourcePoint" />
            <mxPoint x="340" y="280" as="targetPoint" />
          </mxGeometry>
        </mxCell>
        <mxCell id="s71qPfRF_DvY5b6jS86k-54" value="" style="endArrow=none;dashed=1;html=1;rounded=0;entryX=0.5;entryY=1;entryDx=0;entryDy=0;" edge="1" parent="1" source="s71qPfRF_DvY5b6jS86k-70" target="s71qPfRF_DvY5b6jS86k-55">
          <mxGeometry width="50" height="50" relative="1" as="geometry">
            <mxPoint x="315.5" y="360" as="sourcePoint" />
            <mxPoint x="315" y="100" as="targetPoint" />
          </mxGeometry>
        </mxCell>
        <mxCell id="s71qPfRF_DvY5b6jS86k-55" value="" style="html=1;points=[[0,0,0,0,5],[0,1,0,0,-5],[1,0,0,0,5],[1,1,0,0,-5]];perimeter=orthogonalPerimeter;outlineConnect=0;targetShapes=umlLifeline;portConstraint=eastwest;newEdgeStyle={&quot;curved&quot;:0,&quot;rounded&quot;:0};" vertex="1" parent="1">
          <mxGeometry x="310" y="140" width="10" height="30" as="geometry" />
        </mxCell>
        <mxCell id="s71qPfRF_DvY5b6jS86k-56" value="" style="endArrow=classic;html=1;rounded=0;entryX=0;entryY=0;entryDx=0;entryDy=5;entryPerimeter=0;" edge="1" parent="1" target="s71qPfRF_DvY5b6jS86k-55">
          <mxGeometry width="50" height="50" relative="1" as="geometry">
            <mxPoint x="110" y="145" as="sourcePoint" />
            <mxPoint x="220" y="120" as="targetPoint" />
          </mxGeometry>
        </mxCell>
        <mxCell id="s71qPfRF_DvY5b6jS86k-57" value="1. Acceder al apartado &quot;Encuestas&quot;" style="text;html=1;align=center;verticalAlign=middle;whiteSpace=wrap;rounded=0;" vertex="1" parent="1">
          <mxGeometry x="110" y="120" width="200" height="20" as="geometry" />
        </mxCell>
        <mxCell id="s71qPfRF_DvY5b6jS86k-58" value="2. Consultar encuestas existes" style="text;html=1;align=center;verticalAlign=middle;whiteSpace=wrap;rounded=0;" vertex="1" parent="1">
          <mxGeometry x="326.25" y="160" width="170" height="20" as="geometry" />
        </mxCell>
        <mxCell id="s71qPfRF_DvY5b6jS86k-59" value="" style="endArrow=classic;html=1;rounded=0;entryX=0;entryY=0;entryDx=0;entryDy=5;entryPerimeter=0;" edge="1" parent="1" target="s71qPfRF_DvY5b6jS86k-80">
          <mxGeometry width="50" height="50" relative="1" as="geometry">
            <mxPoint x="320" y="185" as="sourcePoint" />
            <mxPoint x="595" y="180" as="targetPoint" />
          </mxGeometry>
        </mxCell>
        <mxCell id="s71qPfRF_DvY5b6jS86k-60" value="" style="endArrow=none;dashed=1;html=1;rounded=0;exitX=0.5;exitY=0;exitDx=0;exitDy=0;entryX=0.5;entryY=1;entryDx=0;entryDy=0;" edge="1" parent="1" source="s71qPfRF_DvY5b6jS86k-80" target="s71qPfRF_DvY5b6jS86k-49">
          <mxGeometry width="50" height="50" relative="1" as="geometry">
            <mxPoint x="515" y="900" as="sourcePoint" />
            <mxPoint x="515" y="490" as="targetPoint" />
          </mxGeometry>
        </mxCell>
        <mxCell id="s71qPfRF_DvY5b6jS86k-61" value="" style="endArrow=none;dashed=1;html=1;rounded=0;exitX=0.449;exitY=-0.016;exitDx=0;exitDy=0;exitPerimeter=0;entryX=0.373;entryY=1.02;entryDx=0;entryDy=0;entryPerimeter=0;" edge="1" parent="1" source="s71qPfRF_DvY5b6jS86k-71" target="s71qPfRF_DvY5b6jS86k-47">
          <mxGeometry width="50" height="50" relative="1" as="geometry">
            <mxPoint x="104" y="899" as="sourcePoint" />
            <mxPoint x="102.33000000000004" y="210.51" as="targetPoint" />
            <Array as="points" />
          </mxGeometry>
        </mxCell>
        <mxCell id="s71qPfRF_DvY5b6jS86k-62" value="9. Notificaci칩n de error: Datos inv치lidos" style="text;html=1;align=center;verticalAlign=middle;whiteSpace=wrap;rounded=0;" vertex="1" parent="1">
          <mxGeometry x="105.25" y="610" width="190" height="20" as="geometry" />
        </mxCell>
        <mxCell id="s71qPfRF_DvY5b6jS86k-63" value="3. Retornar encuestas&amp;nbsp;" style="text;html=1;align=center;verticalAlign=middle;whiteSpace=wrap;rounded=0;" vertex="1" parent="1">
          <mxGeometry x="321.5" y="210" width="170" height="20" as="geometry" />
        </mxCell>
        <mxCell id="s71qPfRF_DvY5b6jS86k-64" value="" style="endArrow=classic;html=1;rounded=0;entryX=1;entryY=0;entryDx=0;entryDy=5;entryPerimeter=0;" edge="1" parent="1" target="s71qPfRF_DvY5b6jS86k-70">
          <mxGeometry width="50" height="50" relative="1" as="geometry">
            <mxPoint x="510" y="235" as="sourcePoint" />
            <mxPoint x="202.5" y="190" as="targetPoint" />
          </mxGeometry>
        </mxCell>
        <mxCell id="s71qPfRF_DvY5b6jS86k-65" value="" style="endArrow=none;dashed=1;html=1;rounded=0;exitX=0.5;exitY=0;exitDx=0;exitDy=0;" edge="1" parent="1" source="s71qPfRF_DvY5b6jS86k-91" target="s71qPfRF_DvY5b6jS86k-74">
          <mxGeometry width="50" height="50" relative="1" as="geometry">
            <mxPoint x="307.5" y="446" as="sourcePoint" />
            <mxPoint x="320" y="390" as="targetPoint" />
            <Array as="points" />
          </mxGeometry>
        </mxCell>
        <mxCell id="s71qPfRF_DvY5b6jS86k-66" value="" style="endArrow=none;dashed=1;html=1;rounded=0;exitX=0.5;exitY=0;exitDx=0;exitDy=0;" edge="1" parent="1" source="s71qPfRF_DvY5b6jS86k-52" target="s71qPfRF_DvY5b6jS86k-86">
          <mxGeometry width="50" height="50" relative="1" as="geometry">
            <mxPoint x="501.25" y="901" as="sourcePoint" />
            <mxPoint x="501.25" y="786" as="targetPoint" />
          </mxGeometry>
        </mxCell>
        <mxCell id="s71qPfRF_DvY5b6jS86k-67" value="11. Confirmaci칩n" style="text;html=1;align=center;verticalAlign=middle;whiteSpace=wrap;rounded=0;" vertex="1" parent="1">
          <mxGeometry x="314.75" y="750" width="190" height="20" as="geometry" />
        </mxCell>
        <mxCell id="s71qPfRF_DvY5b6jS86k-68" value="" style="endArrow=classic;html=1;rounded=0;entryX=1;entryY=0;entryDx=0;entryDy=5;entryPerimeter=0;" edge="1" parent="1" target="s71qPfRF_DvY5b6jS86k-89">
          <mxGeometry width="50" height="50" relative="1" as="geometry">
            <mxPoint x="497.25" y="775" as="sourcePoint" />
            <mxPoint x="583.75" y="680" as="targetPoint" />
          </mxGeometry>
        </mxCell>
        <mxCell id="s71qPfRF_DvY5b6jS86k-69" value="" style="endArrow=none;dashed=1;html=1;rounded=0;entryX=0.5;entryY=1;entryDx=0;entryDy=0;" edge="1" parent="1" source="s71qPfRF_DvY5b6jS86k-74" target="s71qPfRF_DvY5b6jS86k-70">
          <mxGeometry width="50" height="50" relative="1" as="geometry">
            <mxPoint x="315" y="280" as="sourcePoint" />
            <mxPoint x="315" y="170" as="targetPoint" />
          </mxGeometry>
        </mxCell>
        <mxCell id="s71qPfRF_DvY5b6jS86k-70" value="" style="html=1;points=[[0,0,0,0,5],[0,1,0,0,-5],[1,0,0,0,5],[1,1,0,0,-5]];perimeter=orthogonalPerimeter;outlineConnect=0;targetShapes=umlLifeline;portConstraint=eastwest;newEdgeStyle={&quot;curved&quot;:0,&quot;rounded&quot;:0};" vertex="1" parent="1">
          <mxGeometry x="311.5" y="230" width="10" height="30" as="geometry" />
        </mxCell>
        <mxCell id="s71qPfRF_DvY5b6jS86k-71" value="" style="html=1;points=[[0,0,0,0,5],[0,1,0,0,-5],[1,0,0,0,5],[1,1,0,0,-5]];perimeter=orthogonalPerimeter;outlineConnect=0;targetShapes=umlLifeline;portConstraint=eastwest;newEdgeStyle={&quot;curved&quot;:0,&quot;rounded&quot;:0};" vertex="1" parent="1">
          <mxGeometry x="97.5" y="276" width="10" height="30" as="geometry" />
        </mxCell>
        <mxCell id="s71qPfRF_DvY5b6jS86k-72" value="" style="endArrow=classic;html=1;rounded=0;entryX=1;entryY=0;entryDx=0;entryDy=5;entryPerimeter=0;" edge="1" parent="1" target="s71qPfRF_DvY5b6jS86k-71">
          <mxGeometry width="50" height="50" relative="1" as="geometry">
            <mxPoint x="310" y="282" as="sourcePoint" />
            <mxPoint x="422" y="252" as="targetPoint" />
          </mxGeometry>
        </mxCell>
        <mxCell id="s71qPfRF_DvY5b6jS86k-73" value="4. Mostrar bot칩n &quot;Crear encuesta&quot;" style="text;html=1;align=center;verticalAlign=middle;whiteSpace=wrap;rounded=0;" vertex="1" parent="1">
          <mxGeometry x="125" y="256" width="170" height="20" as="geometry" />
        </mxCell>
        <mxCell id="s71qPfRF_DvY5b6jS86k-74" value="" style="html=1;points=[[0,0,0,0,5],[0,1,0,0,-5],[1,0,0,0,5],[1,1,0,0,-5]];perimeter=orthogonalPerimeter;outlineConnect=0;targetShapes=umlLifeline;portConstraint=eastwest;newEdgeStyle={&quot;curved&quot;:0,&quot;rounded&quot;:0};" vertex="1" parent="1">
          <mxGeometry x="310" y="326" width="10" height="30" as="geometry" />
        </mxCell>
        <mxCell id="s71qPfRF_DvY5b6jS86k-75" value="" style="endArrow=classic;html=1;rounded=0;entryX=0;entryY=0;entryDx=0;entryDy=5;entryPerimeter=0;" edge="1" parent="1" target="s71qPfRF_DvY5b6jS86k-74">
          <mxGeometry width="50" height="50" relative="1" as="geometry">
            <mxPoint x="110" y="330" as="sourcePoint" />
            <mxPoint x="442" y="236" as="targetPoint" />
          </mxGeometry>
        </mxCell>
        <mxCell id="s71qPfRF_DvY5b6jS86k-76" value="5. Pulsar el bot칩n &quot;Crear encuesta&quot;" style="text;html=1;align=center;verticalAlign=middle;whiteSpace=wrap;rounded=0;" vertex="1" parent="1">
          <mxGeometry x="125" y="306" width="170" height="20" as="geometry" />
        </mxCell>
        <mxCell id="s71qPfRF_DvY5b6jS86k-77" value="" style="endArrow=none;dashed=1;html=1;rounded=0;exitX=0.394;exitY=0.013;exitDx=0;exitDy=0;exitPerimeter=0;" edge="1" parent="1" source="s71qPfRF_DvY5b6jS86k-50" target="s71qPfRF_DvY5b6jS86k-78">
          <mxGeometry width="50" height="50" relative="1" as="geometry">
            <mxPoint x="95" y="905" as="sourcePoint" />
            <mxPoint x="99" y="656" as="targetPoint" />
            <Array as="points" />
          </mxGeometry>
        </mxCell>
        <mxCell id="s71qPfRF_DvY5b6jS86k-78" value="&lt;span style=&quot;color: rgb(237, 237, 237); font-family: monospace; font-size: 0px; text-align: start;&quot;&gt;%3CmxGraphModel%3E%3Croot%3E%3CmxCell%20id%3D%220%22%2F%3E%3CmxCell%20id%3D%221%22%20parent%3D%220%22%2F%3E%3CmxCell%20id%3D%222%22%20value%3D%22%22%20style%3D%22html%3D1%3Bpoints%3D%5B%5B0%2C0%2C0%2C0%2C5%5D%2C%5B0%2C1%2C0%2C0%2C-5%5D%2C%5B1%2C0%2C0%2C0%2C5%5D%2C%5B1%2C1%2C0%2C0%2C-5%5D%5D%3Bperimeter%3DorthogonalPerimeter%3BoutlineConnect%3D0%3BtargetShapes%3DumlLifeline%3BportConstraint%3Deastwest%3BnewEdgeStyle%3D%7B%26quot%3Bcurved%26quot%3B%3A0%2C%26quot%3Brounded%26quot%3B%3A0%7D%3B%22%20vertex%3D%221%22%20parent%3D%221%22%3E%3CmxGeometry%20x%3D%2285%22%20y%3D%22280%22%20width%3D%2210%22%20height%3D%2230%22%20as%3D%22geometry%22%2F%3E%3C%2FmxCell%3E%3C%2Froot%3E%3C%2FmxGraphModel%3E&lt;/span&gt;&lt;span style=&quot;color: rgb(237, 237, 237); font-family: monospace; font-size: 0px; text-align: start;&quot;&gt;%3CmxGraphModel%3E%3Croot%3E%3CmxCell%20id%3D%220%22%2F%3E%3CmxCell%20id%3D%221%22%20parent%3D%220%22%2F%3E%3CmxCell%20id%3D%222%22%20value%3D%22%22%20style%3D%22html%3D1%3Bpoints%3D%5B%5B0%2C0%2C0%2C0%2C5%5D%2C%5B0%2C1%2C0%2C0%2C-5%5D%2C%5B1%2C0%2C0%2C0%2C5%5D%2C%5B1%2C1%2C0%2C0%2C-5%5D%5D%3Bperimeter%3DorthogonalPerimeter%3BoutlineConnect%3D0%3BtargetShapes%3DumlLifeline%3BportConstraint%3Deastwest%3BnewEdgeStyle%3D%7B%26quot%3Bcurved%26quot%3B%3A0%2C%26quot%3Brounded%26quot%3B%3A0%7D%3B%22%20vertex%3D%221%22%20parent%3D%221%22%3E%3CmxGeometry%20x%3D%2285%22%20y%3D%22280%22%20width%3D%2210%22%20height%3D%2230%22%20as%3D%22geometry%22%2F%3E%3C%2FmxCell%3E%3C%2Froot%3E%3C%2FmxGraphModel%3E&lt;/span&gt;" style="html=1;points=[[0,0,0,0,5],[0,1,0,0,-5],[1,0,0,0,5],[1,1,0,0,-5]];perimeter=orthogonalPerimeter;outlineConnect=0;targetShapes=umlLifeline;portConstraint=eastwest;newEdgeStyle={&quot;curved&quot;:0,&quot;rounded&quot;:0};" vertex="1" parent="1">
          <mxGeometry x="89" y="630" width="10" height="30" as="geometry" />
        </mxCell>
        <mxCell id="s71qPfRF_DvY5b6jS86k-79" value="" style="endArrow=none;dashed=1;html=1;rounded=0;exitX=0.5;exitY=0;exitDx=0;exitDy=0;entryX=0.5;entryY=1;entryDx=0;entryDy=0;" edge="1" parent="1" source="s71qPfRF_DvY5b6jS86k-86" target="s71qPfRF_DvY5b6jS86k-80">
          <mxGeometry width="50" height="50" relative="1" as="geometry">
            <mxPoint x="511" y="576" as="sourcePoint" />
            <mxPoint x="515" y="100" as="targetPoint" />
          </mxGeometry>
        </mxCell>
        <mxCell id="s71qPfRF_DvY5b6jS86k-80" value="" style="html=1;points=[[0,0,0,0,5],[0,1,0,0,-5],[1,0,0,0,5],[1,1,0,0,-5]];perimeter=orthogonalPerimeter;outlineConnect=0;targetShapes=umlLifeline;portConstraint=eastwest;newEdgeStyle={&quot;curved&quot;:0,&quot;rounded&quot;:0};" vertex="1" parent="1">
          <mxGeometry x="507.5" y="180" width="10" height="30" as="geometry" />
        </mxCell>
        <mxCell id="s71qPfRF_DvY5b6jS86k-81" value="" style="endArrow=none;dashed=1;html=1;rounded=0;exitX=0.449;exitY=-0.016;exitDx=0;exitDy=0;exitPerimeter=0;" edge="1" parent="1" source="s71qPfRF_DvY5b6jS86k-78" target="s71qPfRF_DvY5b6jS86k-71">
          <mxGeometry width="50" height="50" relative="1" as="geometry">
            <mxPoint x="104" y="726" as="sourcePoint" />
            <mxPoint x="100" y="385" as="targetPoint" />
            <Array as="points" />
          </mxGeometry>
        </mxCell>
        <mxCell id="s71qPfRF_DvY5b6jS86k-82" value="" style="endArrow=classic;html=1;rounded=0;entryX=1;entryY=1;entryDx=0;entryDy=-5;entryPerimeter=0;exitX=1;exitY=0;exitDx=0;exitDy=5;exitPerimeter=0;edgeStyle=orthogonalEdgeStyle;" edge="1" parent="1">
          <mxGeometry width="50" height="50" relative="1" as="geometry">
            <mxPoint x="321.5" y="465" as="sourcePoint" />
            <mxPoint x="321.5" y="485" as="targetPoint" />
            <Array as="points">
              <mxPoint x="359.63" y="465" />
              <mxPoint x="359.63" y="485" />
            </Array>
          </mxGeometry>
        </mxCell>
        <mxCell id="s71qPfRF_DvY5b6jS86k-83" value="8. Validar comentario" style="text;html=1;align=center;verticalAlign=middle;whiteSpace=wrap;rounded=0;" vertex="1" parent="1">
          <mxGeometry x="346" y="465" width="110" height="20" as="geometry" />
        </mxCell>
        <mxCell id="s71qPfRF_DvY5b6jS86k-84" value="" style="endArrow=none;dashed=1;html=1;rounded=0;exitX=0.443;exitY=-0.04;exitDx=0;exitDy=0;exitPerimeter=0;" edge="1" parent="1" source="s71qPfRF_DvY5b6jS86k-89" target="s71qPfRF_DvY5b6jS86k-91">
          <mxGeometry width="50" height="50" relative="1" as="geometry">
            <mxPoint x="316.87" y="846" as="sourcePoint" />
            <mxPoint x="317.80000000000007" y="660" as="targetPoint" />
            <Array as="points" />
          </mxGeometry>
        </mxCell>
        <mxCell id="s71qPfRF_DvY5b6jS86k-85" value="[Datos inv치lidos]" style="text;html=1;align=center;verticalAlign=middle;whiteSpace=wrap;rounded=0;" vertex="1" parent="1">
          <mxGeometry x="231.5" y="560" width="170" height="20" as="geometry" />
        </mxCell>
        <mxCell id="s71qPfRF_DvY5b6jS86k-86" value="" style="html=1;points=[[0,0,0,0,5],[0,1,0,0,-5],[1,0,0,0,5],[1,1,0,0,-5]];perimeter=orthogonalPerimeter;outlineConnect=0;targetShapes=umlLifeline;portConstraint=eastwest;newEdgeStyle={&quot;curved&quot;:0,&quot;rounded&quot;:0};" vertex="1" parent="1">
          <mxGeometry x="504.75" y="710" width="10" height="30" as="geometry" />
        </mxCell>
        <mxCell id="s71qPfRF_DvY5b6jS86k-87" value="" style="endArrow=classic;html=1;rounded=0;entryX=0;entryY=0;entryDx=0;entryDy=5;entryPerimeter=0;" edge="1" parent="1" target="s71qPfRF_DvY5b6jS86k-86">
          <mxGeometry width="50" height="50" relative="1" as="geometry">
            <mxPoint x="320" y="715" as="sourcePoint" />
            <mxPoint x="458.5" y="680" as="targetPoint" />
          </mxGeometry>
        </mxCell>
        <mxCell id="s71qPfRF_DvY5b6jS86k-88" value="10. Guardar encuesta" style="text;html=1;align=center;verticalAlign=middle;whiteSpace=wrap;rounded=0;" vertex="1" parent="1">
          <mxGeometry x="316" y="690" width="170" height="20" as="geometry" />
        </mxCell>
        <mxCell id="s71qPfRF_DvY5b6jS86k-89" value="&lt;span style=&quot;color: rgb(237, 237, 237); font-family: monospace; font-size: 0px; text-align: start;&quot;&gt;%3CmxGraphModel%3E%3Croot%3E%3CmxCell%20id%3D%220%22%2F%3E%3CmxCell%20id%3D%221%22%20parent%3D%220%22%2F%3E%3CmxCell%20id%3D%222%22%20value%3D%22%22%20style%3D%22html%3D1%3Bpoints%3D%5B%5B0%2C0%2C0%2C0%2C5%5D%2C%5B0%2C1%2C0%2C0%2C-5%5D%2C%5B1%2C0%2C0%2C0%2C5%5D%2C%5B1%2C1%2C0%2C0%2C-5%5D%5D%3Bperimeter%3DorthogonalPerimeter%3BoutlineConnect%3D0%3BtargetShapes%3DumlLifeline%3BportConstraint%3Deastwest%3BnewEdgeStyle%3D%7B%26quot%3Bcurved%26quot%3B%3A0%2C%26quot%3Brounded%26quot%3B%3A0%7D%3B%22%20vertex%3D%221%22%20parent%3D%221%22%3E%3CmxGeometry%20x%3D%2285%22%20y%3D%22280%22%20width%3D%2210%22%20height%3D%2230%22%20as%3D%22geometry%22%2F%3E%3C%2FmxCell%3E%3C%2Froot%3E%3C%2FmxGraphModel%3E&lt;/span&gt;&lt;span style=&quot;color: rgb(237, 237, 237); font-family: monospace; font-size: 0px; text-align: start;&quot;&gt;%3CmxGraphModel%3E%3Croot%3E%3CmxCell%20id%3D%220%22%2F%3E%3CmxCell%20id%3D%221%22%20parent%3D%220%22%2F%3E%3CmxCell%20id%3D%222%22%20value%3D%22%22%20style%3D%22html%3D1%3Bpoints%3D%5B%5B0%2C0%2C0%2C0%2C5%5D%2C%5B0%2C1%2C0%2C0%2C-5%5D%2C%5B1%2C0%2C0%2C0%2C5%5D%2C%5B1%2C1%2C0%2C0%2C-5%5D%5D%3Bperimeter%3DorthogonalPerimeter%3BoutlineConnect%3D0%3BtargetShapes%3DumlLifeline%3BportConstraint%3Deastwest%3BnewEdgeStyle%3D%7B%26quot%3Bcurved%26quot%3B%3A0%2C%26quot%3Brounded%26quot%3B%3A0%7D%3B%22%20vertex%3D%221%22%20parent%3D%221%22%3E%3CmxGeometry%20x%3D%2285%22%20y%3D%22280%22%20width%3D%2210%22%20height%3D%2230%22%20as%3D%22geometry%22%2F%3E%3C%2FmxCell%3E%3C%2Froot%3E%3C%2FmxGraphModel%3E&lt;/span&gt;" style="html=1;points=[[0,0,0,0,5],[0,1,0,0,-5],[1,0,0,0,5],[1,1,0,0,-5]];perimeter=orthogonalPerimeter;outlineConnect=0;targetShapes=umlLifeline;portConstraint=eastwest;newEdgeStyle={&quot;curved&quot;:0,&quot;rounded&quot;:0};" vertex="1" parent="1">
          <mxGeometry x="310" y="770" width="10" height="30" as="geometry" />
        </mxCell>
        <mxCell id="s71qPfRF_DvY5b6jS86k-90" value="" style="endArrow=open;endSize=12;dashed=1;html=1;rounded=0;fontSize=12;curved=1;entryX=1;entryY=0;entryDx=0;entryDy=5;entryPerimeter=0;" edge="1" parent="1" target="s71qPfRF_DvY5b6jS86k-78">
          <mxGeometry width="160" relative="1" as="geometry">
            <mxPoint x="301.5" y="635" as="sourcePoint" />
            <mxPoint x="371.5" y="430" as="targetPoint" />
          </mxGeometry>
        </mxCell>
        <mxCell id="s71qPfRF_DvY5b6jS86k-91" value="" style="html=1;points=[[0,0,0,0,5],[0,1,0,0,-5],[1,0,0,0,5],[1,1,0,0,-5]];perimeter=orthogonalPerimeter;outlineConnect=0;targetShapes=umlLifeline;portConstraint=eastwest;newEdgeStyle={&quot;curved&quot;:0,&quot;rounded&quot;:0};" vertex="1" parent="1">
          <mxGeometry x="311.5" y="460" width="10" height="30" as="geometry" />
        </mxCell>
        <mxCell id="s71qPfRF_DvY5b6jS86k-92" value="alt" style="shape=umlFrame;whiteSpace=wrap;html=1;pointerEvents=0;" vertex="1" parent="1">
          <mxGeometry x="66" y="550" width="454" height="120" as="geometry" />
        </mxCell>
        <mxCell id="s71qPfRF_DvY5b6jS86k-93" value="" style="endArrow=none;dashed=1;html=1;rounded=0;exitX=0.5;exitY=0;exitDx=0;exitDy=0;" edge="1" parent="1" source="s71qPfRF_DvY5b6jS86k-51" target="s71qPfRF_DvY5b6jS86k-89">
          <mxGeometry width="50" height="50" relative="1" as="geometry">
            <mxPoint x="300" y="959" as="sourcePoint" />
            <mxPoint x="300" y="720" as="targetPoint" />
            <Array as="points" />
          </mxGeometry>
        </mxCell>
        <mxCell id="s71qPfRF_DvY5b6jS86k-94" value="" style="html=1;points=[[0,0,0,0,5],[0,1,0,0,-5],[1,0,0,0,5],[1,1,0,0,-5]];perimeter=orthogonalPerimeter;outlineConnect=0;targetShapes=umlLifeline;portConstraint=eastwest;newEdgeStyle={&quot;curved&quot;:0,&quot;rounded&quot;:0};" vertex="1" parent="1">
          <mxGeometry x="89" y="820" width="10" height="30" as="geometry" />
        </mxCell>
        <mxCell id="s71qPfRF_DvY5b6jS86k-95" value="" style="endArrow=classic;html=1;rounded=0;entryX=1;entryY=0;entryDx=0;entryDy=5;entryPerimeter=0;dashed=1;" edge="1" parent="1" target="s71qPfRF_DvY5b6jS86k-94">
          <mxGeometry width="50" height="50" relative="1" as="geometry">
            <mxPoint x="301.5" y="826" as="sourcePoint" />
            <mxPoint x="413.5" y="796" as="targetPoint" />
          </mxGeometry>
        </mxCell>
        <mxCell id="s71qPfRF_DvY5b6jS86k-96" value="12. Notificaci칩n de 칠xito: Encuesta creada correctamente" style="text;html=1;align=center;verticalAlign=middle;whiteSpace=wrap;rounded=0;" vertex="1" parent="1">
          <mxGeometry x="115.25" y="790" width="170" height="20" as="geometry" />
        </mxCell>
        <mxCell id="s71qPfRF_DvY5b6jS86k-97" value="" style="html=1;points=[[0,0,0,0,5],[0,1,0,0,-5],[1,0,0,0,5],[1,1,0,0,-5]];perimeter=orthogonalPerimeter;outlineConnect=0;targetShapes=umlLifeline;portConstraint=eastwest;newEdgeStyle={&quot;curved&quot;:0,&quot;rounded&quot;:0};" vertex="1" parent="1">
          <mxGeometry x="89" y="370" width="10" height="30" as="geometry" />
        </mxCell>
        <mxCell id="s71qPfRF_DvY5b6jS86k-98" value="" style="endArrow=classic;html=1;rounded=0;entryX=1;entryY=0;entryDx=0;entryDy=5;entryPerimeter=0;" edge="1" parent="1" target="s71qPfRF_DvY5b6jS86k-97">
          <mxGeometry width="50" height="50" relative="1" as="geometry">
            <mxPoint x="310" y="375" as="sourcePoint" />
            <mxPoint x="413.5" y="346" as="targetPoint" />
          </mxGeometry>
        </mxCell>
        <mxCell id="s71qPfRF_DvY5b6jS86k-99" value="6. Mostrar formulario" style="text;html=1;align=center;verticalAlign=middle;whiteSpace=wrap;rounded=0;" vertex="1" parent="1">
          <mxGeometry x="116.5" y="350" width="170" height="20" as="geometry" />
        </mxCell>
        <mxCell id="s71qPfRF_DvY5b6jS86k-100" value="" style="html=1;points=[[0,0,0,0,5],[0,1,0,0,-5],[1,0,0,0,5],[1,1,0,0,-5]];perimeter=orthogonalPerimeter;outlineConnect=0;targetShapes=umlLifeline;portConstraint=eastwest;newEdgeStyle={&quot;curved&quot;:0,&quot;rounded&quot;:0};" vertex="1" parent="1">
          <mxGeometry x="310" y="410" width="10" height="30" as="geometry" />
        </mxCell>
        <mxCell id="s71qPfRF_DvY5b6jS86k-101" value="" style="endArrow=classic;html=1;rounded=0;entryX=0;entryY=0;entryDx=0;entryDy=5;entryPerimeter=0;" edge="1" parent="1" target="s71qPfRF_DvY5b6jS86k-100">
          <mxGeometry width="50" height="50" relative="1" as="geometry">
            <mxPoint x="110" y="414" as="sourcePoint" />
            <mxPoint x="442" y="320" as="targetPoint" />
          </mxGeometry>
        </mxCell>
        <mxCell id="s71qPfRF_DvY5b6jS86k-102" value="7. Enviar datos de encuesta" style="text;html=1;align=center;verticalAlign=middle;whiteSpace=wrap;rounded=0;" vertex="1" parent="1">
          <mxGeometry x="125" y="390" width="170" height="20" as="geometry" />
        </mxCell>
        <mxCell id="mu5xepJeMjLhqXpBPXJs-1" value="CREAR ENCUESTA" style="rounded=0;whiteSpace=wrap;html=1;" vertex="1" parent="1">
          <mxGeometry x="66" y="-40" width="604" height="60" as="geometry" />
        </mxCell>
      </root>
    </mxGraphModel>
  </diagram>
</mxfile>
